<mxfile host="app.diagrams.net" modified="2021-03-14T14:01:48.266Z" agent="5.0 (Windows NT 10.0; Win64; x64) AppleWebKit/537.36 (KHTML, like Gecko) Chrome/88.0.4324.190 Safari/537.36" etag="5U6qo58vYTOA9LpHwAUC" version="14.4.8" type="github">
  <diagram id="NwGpluzZfBLq9LY4LFKO" name="Page-1">
    <mxGraphModel dx="1422" dy="762" grid="1" gridSize="10" guides="1" tooltips="1" connect="1" arrows="1" fold="1" page="1" pageScale="1" pageWidth="827" pageHeight="1169" math="0" shadow="0">
      <root>
        <mxCell id="0" />
        <mxCell id="1" parent="0" />
        <mxCell id="8-7b5ulnc9BxNWWt8EDz-7" style="edgeStyle=orthogonalEdgeStyle;rounded=0;orthogonalLoop=1;jettySize=auto;html=1;exitX=0.5;exitY=1;exitDx=0;exitDy=0;entryX=0.5;entryY=0;entryDx=0;entryDy=0;" edge="1" parent="1" source="8-7b5ulnc9BxNWWt8EDz-1" target="8-7b5ulnc9BxNWWt8EDz-2">
          <mxGeometry relative="1" as="geometry" />
        </mxCell>
        <mxCell id="8-7b5ulnc9BxNWWt8EDz-1" value="全部视频" style="whiteSpace=wrap;html=1;aspect=fixed;" vertex="1" parent="1">
          <mxGeometry x="400" y="40" width="80" height="80" as="geometry" />
        </mxCell>
        <mxCell id="8-7b5ulnc9BxNWWt8EDz-2" value="理论/数学" style="swimlane;html=1;childLayout=stackLayout;resizeParent=1;resizeParentMax=0;horizontal=1;startSize=20;horizontalStack=0;" vertex="1" parent="1">
          <mxGeometry x="110" y="180" width="200" height="380" as="geometry" />
        </mxCell>
        <mxCell id="8-7b5ulnc9BxNWWt8EDz-3" value="Lane 1" style="swimlane;html=1;startSize=20;horizontal=0;" vertex="1" parent="8-7b5ulnc9BxNWWt8EDz-2">
          <mxGeometry y="20" width="200" height="120" as="geometry" />
        </mxCell>
        <mxCell id="8-7b5ulnc9BxNWWt8EDz-4" value="Lane 2" style="swimlane;html=1;startSize=20;horizontal=0;" vertex="1" parent="8-7b5ulnc9BxNWWt8EDz-2">
          <mxGeometry y="140" width="200" height="120" as="geometry" />
        </mxCell>
        <mxCell id="8-7b5ulnc9BxNWWt8EDz-5" value="Lane 3" style="swimlane;html=1;startSize=20;horizontal=0;" vertex="1" parent="8-7b5ulnc9BxNWWt8EDz-2">
          <mxGeometry y="260" width="200" height="120" as="geometry" />
        </mxCell>
      </root>
    </mxGraphModel>
  </diagram>
</mxfile>
